<svg width="30" height="31" viewBox="0 0 30 31" fill="none" xmlns="http://www.w3.org/2000/svg">
<path d="M6.25 14.003H21.075L16.5375 8.55303C16.3253 8.29776 16.2232 7.96866 16.2537 7.63813C16.2842 7.30759 16.4447 7.0027 16.7 6.79053C16.9553 6.57836 17.2844 6.47628 17.6149 6.50675C17.9454 6.53723 18.2503 6.69776 18.4625 6.95303L24.7125 14.453C24.7545 14.5127 24.7922 14.5754 24.825 14.6405C24.825 14.703 24.825 14.7405 24.9125 14.803C24.9692 14.9464 24.9988 15.0989 25 15.253C24.9988 15.4071 24.9692 15.5597 24.9125 15.703C24.9125 15.7655 24.9125 15.803 24.825 15.8655C24.7922 15.9307 24.7545 15.9934 24.7125 16.053L18.4625 23.553C18.345 23.6941 18.1978 23.8076 18.0314 23.8854C17.8651 23.9632 17.6836 24.0033 17.5 24.003C17.2079 24.0036 16.9249 23.9019 16.7 23.7155C16.5734 23.6106 16.4688 23.4817 16.3921 23.3363C16.3154 23.1908 16.2682 23.0317 16.2531 22.868C16.238 22.7043 16.2553 22.5392 16.3041 22.3822C16.3529 22.2252 16.4322 22.0793 16.5375 21.953L21.075 16.503H6.25C5.91848 16.503 5.60054 16.3713 5.36612 16.1369C5.13169 15.9025 5 15.5846 5 15.253C5 14.9215 5.13169 14.6036 5.36612 14.3691C5.60054 14.1347 5.91848 14.003 6.25 14.003Z" fill="white"/>
</svg>
