<svg width="30" height="31" viewBox="0 0 30 31" fill="none" xmlns="http://www.w3.org/2000/svg">
<path d="M23.75 14.003H8.925L13.4625 8.55303C13.6747 8.29776 13.7768 7.96866 13.7463 7.63813C13.7158 7.30759 13.5553 7.0027 13.3 6.79053C13.0447 6.57836 12.7156 6.47628 12.3851 6.50675C12.0546 6.53723 11.7497 6.69776 11.5375 6.95303L5.2875 14.453C5.24545 14.5127 5.20785 14.5754 5.175 14.6405C5.175 14.703 5.175 14.7405 5.0875 14.803C5.03084 14.9464 5.00118 15.0989 5 15.253C5.00118 15.4071 5.03084 15.5597 5.0875 15.703C5.0875 15.7655 5.0875 15.803 5.175 15.8655C5.20785 15.9307 5.24545 15.9934 5.2875 16.053L11.5375 23.553C11.655 23.6941 11.8022 23.8076 11.9686 23.8854C12.1349 23.9632 12.3164 24.0033 12.5 24.003C12.7921 24.0036 13.0751 23.9019 13.3 23.7155C13.4266 23.6106 13.5312 23.4817 13.6079 23.3363C13.6846 23.1908 13.7318 23.0317 13.7469 22.868C13.762 22.7043 13.7447 22.5392 13.6959 22.3822C13.6471 22.2252 13.5678 22.0793 13.4625 21.953L8.925 16.503H23.75C24.0815 16.503 24.3995 16.3713 24.6339 16.1369C24.8683 15.9025 25 15.5846 25 15.253C25 14.9215 24.8683 14.6036 24.6339 14.3691C24.3995 14.1347 24.0815 14.003 23.75 14.003Z" fill="#F53838"/>
</svg>
