<svg width="25" height="25" viewBox="0 0 25 25" fill="none" xmlns="http://www.w3.org/2000/svg">
<path d="M11.3961 17.2795C11.2649 17.2797 11.1349 17.2541 11.0135 17.204C10.8922 17.1538 10.782 17.0803 10.6891 16.9875L6.44714 12.7445C6.35157 12.6523 6.27531 12.542 6.22282 12.42C6.17033 12.2981 6.14265 12.1669 6.1414 12.0341C6.14015 11.9013 6.16536 11.7696 6.21556 11.6467C6.26575 11.5237 6.33993 11.412 6.43375 11.3181C6.52758 11.2241 6.63917 11.1498 6.76203 11.0994C6.88489 11.0491 7.01655 11.0237 7.14933 11.0247C7.28211 11.0258 7.41335 11.0533 7.53539 11.1056C7.65743 11.1579 7.76783 11.234 7.86014 11.3295L11.3951 14.8645L17.7601 8.50145C17.9477 8.31381 18.202 8.20835 18.4673 8.20825C18.7326 8.20816 18.987 8.31345 19.1746 8.50095C19.3623 8.68846 19.4678 8.94283 19.4678 9.2081C19.4679 9.47337 19.3627 9.72781 19.1751 9.91545L12.1031 16.9875C12.0103 17.0803 11.9001 17.1538 11.7788 17.204C11.6574 17.2541 11.5274 17.2797 11.3961 17.2795Z" fill="#2FAB73"/>
</svg>
