<svg width="16" height="17" viewBox="0 0 16 17" fill="none" xmlns="http://www.w3.org/2000/svg">
<path d="M14.189 6.41827L10.2218 5.84171L8.44834 2.24639C8.39991 2.14796 8.32022 2.06827 8.22178 2.01983C7.97491 1.89796 7.67491 1.99952 7.55147 2.24639L5.77803 5.84171L1.81084 6.41827C1.70147 6.43389 1.60147 6.48546 1.52491 6.56358C1.43235 6.65872 1.38134 6.78671 1.3831 6.91943C1.38486 7.05215 1.43924 7.17874 1.53428 7.27139L4.40459 10.0698L3.72647 14.0214C3.71057 14.1133 3.72074 14.2079 3.75583 14.2943C3.79093 14.3807 3.84953 14.4556 3.92501 14.5104C4.00049 14.5652 4.08982 14.5978 4.18288 14.6044C4.27593 14.6111 4.36898 14.5915 4.45147 14.548L7.99991 12.6823L11.5483 14.548C11.6452 14.5995 11.7577 14.6167 11.8655 14.598C12.1374 14.5511 12.3202 14.2933 12.2733 14.0214L11.5952 10.0698L14.4655 7.27139C14.5437 7.19483 14.5952 7.09483 14.6108 6.98546C14.653 6.71202 14.4624 6.45889 14.189 6.41827Z" fill="#FEA250"/>
</svg>
